<svg xmlns="http://www.w3.org/2000/svg" xmlns:xlink="http://www.w3.org/1999/xlink" width="400" zoomAndPan="magnify" viewBox="0 0 300 299.999988" height="400" preserveAspectRatio="xMidYMid meet" version="1.0"><defs><g/><clipPath id="c078bb040a"><path d="M 42.28125 37.71875 L 257.53125 37.71875 L 257.53125 187.507812 L 42.28125 187.507812 Z M 42.28125 37.71875 " clip-rule="nonzero"/></clipPath></defs><rect x="-30" width="360" fill="#ffffff" y="-29.999999" height="359.999986" fill-opacity="1"/><rect x="-30" width="360" fill="#7ed957" y="-29.999999" height="359.999986" fill-opacity="1"/><g clip-path="url(#c078bb040a)"><path fill="#231f20" d="M 88.257812 55.316406 C 83.28125 59.085938 78.304688 62.285156 73.328125 64.914062 C 66.574219 68.539062 62.128906 70.351562 59.996094 70.351562 C 57.722656 70.351562 56.585938 68.539062 56.585938 64.914062 C 56.585938 63.632812 56.867188 62.535156 57.4375 61.609375 C 58.007812 60.753906 59.355469 59.9375 61.492188 59.15625 C 67.890625 56.457031 77.203125 51.265625 89.429688 43.585938 C 94.976562 40.101562 98.886719 38.359375 101.164062 38.359375 C 102.65625 38.359375 104.003906 39.105469 105.214844 40.597656 C 105.996094 41.59375 106.386719 42.664062 106.386719 43.796875 C 106.386719 45.578125 105 48.597656 102.226562 52.863281 C 81.679688 86.136719 67.460938 112.265625 59.570312 131.25 C 57.652344 135.871094 56.265625 138.75 55.410156 139.886719 C 54.058594 141.804688 52.707031 142.765625 51.359375 142.765625 C 50.007812 142.765625 48.726562 141.949219 47.519531 140.3125 C 46.808594 139.386719 46.453125 138.390625 46.453125 137.328125 C 46.453125 133.488281 51.925781 120.832031 62.878906 99.359375 C 73.113281 79.171875 81.574219 64.488281 88.257812 55.316406 Z M 171.65625 45.292969 C 175.496094 46.785156 178.355469 49.183594 180.238281 52.488281 C 182.121094 55.796875 183.066406 60.007812 183.066406 65.128906 C 183.066406 80.984375 176.878906 97.832031 164.511719 115.675781 C 151.070312 135.085938 138.203125 144.792969 125.902344 144.792969 C 119.789062 144.792969 115.203125 141.628906 112.144531 135.300781 C 110.15625 131.175781 109.160156 126.199219 109.160156 120.371094 C 109.160156 106.292969 114.316406 91.4375 124.625 75.792969 C 129.957031 67.761719 137.171875 59.476562 146.273438 50.945312 C 155.796875 42.128906 162.660156 37.71875 166.855469 37.71875 C 170.054688 37.71875 171.65625 40.246094 171.65625 45.292969 Z M 157.789062 52.96875 C 149.472656 59.796875 142.113281 68.113281 135.714844 77.925781 C 126.542969 92.003906 121.957031 105.617188 121.957031 118.769531 C 121.957031 122.683594 122.492188 125.738281 123.558594 127.941406 C 125.335938 131.351562 127.785156 133.0625 130.917969 133.0625 C 135.820312 133.0625 141.6875 129.292969 148.511719 121.757812 C 156.121094 113.367188 162.089844 103.128906 166.429688 91.042969 C 169.769531 81.871094 171.4375 74.121094 171.4375 67.792969 C 171.4375 63.386719 170.089844 59.617188 167.386719 56.488281 C 165.542969 54.285156 163.085938 53.113281 160.03125 52.96875 C 159.246094 52.96875 158.5 52.96875 157.789062 52.96875 Z M 246.304688 45.292969 C 250.144531 46.785156 253.007812 49.183594 254.890625 52.488281 C 256.773438 55.796875 257.71875 60.007812 257.71875 65.128906 C 257.71875 80.984375 251.53125 97.832031 239.160156 115.675781 C 225.722656 135.085938 212.855469 144.792969 200.554688 144.792969 C 194.4375 144.792969 189.855469 141.628906 186.800781 135.300781 C 184.804688 131.175781 183.8125 126.199219 183.8125 120.371094 C 183.8125 106.292969 188.964844 91.4375 199.273438 75.792969 C 204.609375 67.761719 211.824219 59.476562 220.925781 50.945312 C 230.449219 42.128906 237.308594 37.71875 241.507812 37.71875 C 244.703125 37.71875 246.304688 40.246094 246.304688 45.292969 Z M 232.441406 52.96875 C 224.125 59.796875 216.765625 68.113281 210.367188 77.925781 C 201.195312 92.003906 196.609375 105.617188 196.609375 118.769531 C 196.609375 122.683594 197.144531 125.738281 198.210938 127.941406 C 199.984375 131.351562 202.4375 133.0625 205.566406 133.0625 C 210.472656 133.0625 216.339844 129.292969 223.164062 121.757812 C 230.769531 113.367188 236.742188 103.128906 241.082031 91.042969 C 244.421875 81.871094 246.09375 74.121094 246.09375 67.792969 C 246.09375 63.386719 244.742188 59.617188 242.039062 56.488281 C 240.1875 54.285156 237.734375 53.113281 234.683594 52.96875 C 233.898438 52.96875 233.152344 52.96875 232.441406 52.96875 Z M 45.945312 157.703125 C 43.570312 158.128906 41.988281 160.398438 42.414062 162.773438 C 42.839844 165.152344 45.109375 166.730469 47.484375 166.308594 L 47.570312 166.289062 C 63.320312 163.476562 79.492188 161.578125 95.59375 160.324219 C 111.726562 159.105469 127.925781 158.605469 144.101562 159.160156 C 160.273438 159.730469 176.445312 161.316406 192.277344 164.75 C 208.046875 168.21875 223.675781 173.503906 237.277344 182.539062 C 224.089844 172.894531 208.558594 166.835938 192.789062 162.625 C 176.953125 158.445312 160.671875 156.105469 144.351562 154.800781 C 128.023438 153.511719 111.617188 153.277344 95.242188 153.785156 C 78.84375 154.324219 62.5625 155.492188 46.140625 157.675781 C 46.082031 157.683594 46.003906 157.695312 45.945312 157.703125 Z M 45.492188 178.925781 C 43.164062 179.566406 41.796875 181.972656 42.4375 184.300781 C 43.078125 186.625 45.488281 187.996094 47.8125 187.351562 L 47.898438 187.332031 C 59.058594 184.253906 70.671875 181.820312 82.238281 179.84375 C 93.839844 177.890625 105.542969 176.449219 117.296875 175.703125 C 129.046875 174.964844 140.863281 174.910156 152.613281 175.976562 C 164.339844 177.0625 176.058594 179.25 187.164062 183.480469 C 176.339844 178.578125 164.660156 175.632812 152.878906 173.808594 C 141.074219 172.003906 129.105469 171.320312 117.15625 171.335938 C 105.199219 171.359375 93.246094 172.09375 81.347656 173.351562 C 69.425781 174.648438 57.652344 176.359375 45.753906 178.859375 C 45.671875 178.878906 45.574219 178.902344 45.492188 178.925781 " fill-opacity="1" fill-rule="nonzero"/></g><g fill="#231f20" fill-opacity="1"><g transform="translate(66.281251, 246.544564)"><g><path d="M 26.84375 -3.65625 C 26.769531 -5.78125 26.703125 -8.007812 26.640625 -10.34375 C 26.578125 -12.6875 26.546875 -15.394531 26.546875 -18.46875 C 25.285156 -18.425781 23.945312 -18.394531 22.53125 -18.375 C 21.113281 -18.351562 19.660156 -18.34375 18.171875 -18.34375 C 16.398438 -18.34375 14.785156 -18.34375 13.328125 -18.34375 C 11.878906 -18.34375 10.582031 -18.363281 9.4375 -18.40625 C 9.394531 -15.925781 9.351562 -13.535156 9.3125 -11.234375 C 9.28125 -8.929688 9.207031 -6.425781 9.09375 -3.71875 C 9.050781 -2.769531 8.957031 -2.039062 8.8125 -1.53125 C 8.675781 -1.019531 8.488281 -0.625 8.25 -0.34375 C 8.019531 -0.0703125 7.753906 0.0859375 7.453125 0.140625 C 7.160156 0.203125 6.820312 0.234375 6.4375 0.234375 C 5.726562 0.234375 5.132812 -0.0078125 4.65625 -0.5 C 4.1875 -0.988281 3.910156 -2.039062 3.828125 -3.65625 C 3.753906 -5.070312 3.707031 -6.546875 3.6875 -8.078125 C 3.664062 -9.617188 3.632812 -11.269531 3.59375 -13.03125 C 3.5625 -14.800781 3.546875 -16.71875 3.546875 -18.78125 C 3.546875 -20.851562 3.546875 -23.164062 3.546875 -25.71875 C 3.546875 -28.507812 3.5625 -30.898438 3.59375 -32.890625 C 3.632812 -34.878906 3.742188 -36.5 3.921875 -37.75 C 4.097656 -39.007812 4.382812 -39.9375 4.78125 -40.53125 C 5.175781 -41.125 5.726562 -41.421875 6.4375 -41.421875 C 7.101562 -41.421875 7.691406 -41.203125 8.203125 -40.765625 C 8.710938 -40.335938 9.007812 -39.335938 9.09375 -37.765625 C 9.164062 -36.421875 9.222656 -35.207031 9.265625 -34.125 C 9.304688 -33.050781 9.34375 -31.988281 9.375 -30.9375 C 9.414062 -29.894531 9.4375 -28.820312 9.4375 -27.71875 C 9.4375 -26.625 9.4375 -25.410156 9.4375 -24.078125 C 12.382812 -24.191406 15.273438 -24.25 18.109375 -24.25 C 19.484375 -24.25 20.867188 -24.226562 22.265625 -24.1875 C 23.660156 -24.144531 25.085938 -24.085938 26.546875 -24.015625 L 26.546875 -25.71875 C 26.546875 -28.507812 26.566406 -30.898438 26.609375 -32.890625 C 26.648438 -34.878906 26.757812 -36.5 26.9375 -37.75 C 27.113281 -39.007812 27.394531 -39.9375 27.78125 -40.53125 C 28.175781 -41.125 28.726562 -41.421875 29.4375 -41.421875 C 30.101562 -41.421875 30.691406 -41.203125 31.203125 -40.765625 C 31.722656 -40.335938 32.019531 -39.335938 32.09375 -37.765625 C 32.175781 -36.347656 32.234375 -35.085938 32.265625 -33.984375 C 32.304688 -32.878906 32.347656 -31.785156 32.390625 -30.703125 C 32.429688 -29.628906 32.453125 -28.507812 32.453125 -27.34375 C 32.453125 -26.1875 32.453125 -24.878906 32.453125 -23.421875 C 32.453125 -21.648438 32.453125 -19.957031 32.453125 -18.34375 C 32.453125 -16.738281 32.429688 -15.144531 32.390625 -13.5625 C 32.347656 -11.988281 32.304688 -10.394531 32.265625 -8.78125 C 32.234375 -7.175781 32.175781 -5.488281 32.09375 -3.71875 C 32.050781 -2.769531 31.960938 -2.039062 31.828125 -1.53125 C 31.691406 -1.019531 31.503906 -0.625 31.265625 -0.34375 C 31.035156 -0.0703125 30.769531 0.0859375 30.46875 0.140625 C 30.175781 0.203125 29.832031 0.234375 29.4375 0.234375 C 28.726562 0.234375 28.140625 -0.0078125 27.671875 -0.5 C 27.203125 -0.988281 26.925781 -2.039062 26.84375 -3.65625 Z M 26.84375 -3.65625 "/></g></g></g><g fill="#231f20" fill-opacity="1"><g transform="translate(102.266462, 246.544564)"><g><path d="M 8.796875 -26.734375 C 8.867188 -25.703125 8.894531 -24.457031 8.875 -23 C 8.851562 -21.550781 8.875 -20.03125 8.9375 -18.4375 C 9 -16.84375 9.125 -15.25 9.3125 -13.65625 C 9.507812 -12.0625 9.851562 -10.632812 10.34375 -9.375 C 10.84375 -8.125 11.535156 -7.101562 12.421875 -6.3125 C 13.304688 -5.53125 14.457031 -5.140625 15.875 -5.140625 C 17.289062 -5.140625 18.441406 -5.53125 19.328125 -6.3125 C 20.210938 -7.101562 20.898438 -8.125 21.390625 -9.375 C 21.878906 -10.632812 22.222656 -12.0625 22.421875 -13.65625 C 22.617188 -15.25 22.742188 -16.84375 22.796875 -18.4375 C 22.859375 -20.03125 22.878906 -21.550781 22.859375 -23 C 22.835938 -24.457031 22.867188 -25.703125 22.953125 -26.734375 C 23.109375 -29.171875 24.109375 -30.390625 25.953125 -30.390625 C 26.660156 -30.390625 27.210938 -30.191406 27.609375 -29.796875 C 28.003906 -29.398438 28.289062 -28.847656 28.46875 -28.140625 C 28.644531 -27.429688 28.75 -26.582031 28.78125 -25.59375 C 28.820312 -24.613281 28.84375 -23.515625 28.84375 -22.296875 C 28.84375 -19.785156 28.710938 -17.179688 28.453125 -14.484375 C 28.203125 -11.785156 27.632812 -9.316406 26.75 -7.078125 C 25.863281 -4.835938 24.554688 -2.988281 22.828125 -1.53125 C 21.097656 -0.0703125 18.78125 0.65625 15.875 0.65625 C 12.957031 0.65625 10.632812 -0.0703125 8.90625 -1.53125 C 7.175781 -2.988281 5.867188 -4.835938 4.984375 -7.078125 C 4.097656 -9.316406 3.523438 -11.785156 3.265625 -14.484375 C 3.015625 -17.179688 2.890625 -19.785156 2.890625 -22.296875 C 2.890625 -23.515625 2.910156 -24.613281 2.953125 -25.59375 C 2.992188 -26.582031 3.101562 -27.429688 3.28125 -28.140625 C 3.457031 -28.847656 3.738281 -29.398438 4.125 -29.796875 C 4.519531 -30.191406 5.070312 -30.390625 5.78125 -30.390625 C 7.632812 -30.390625 8.640625 -29.171875 8.796875 -26.734375 Z M 8.796875 -26.734375 "/></g></g></g><g fill="#231f20" fill-opacity="1"><g transform="translate(134.299194, 246.544564)"><g><path d="M 17.46875 -25.140625 C 16.007812 -25.140625 14.695312 -24.898438 13.53125 -24.421875 C 12.375 -23.953125 11.066406 -23.242188 9.609375 -22.296875 C 9.609375 -21.472656 9.609375 -20.265625 9.609375 -18.671875 C 9.609375 -17.078125 9.585938 -15.34375 9.546875 -13.46875 C 9.515625 -11.601562 9.476562 -9.765625 9.4375 -7.953125 C 9.394531 -6.148438 9.316406 -4.640625 9.203125 -3.421875 C 9.128906 -2.628906 9.039062 -2.007812 8.9375 -1.5625 C 8.84375 -1.113281 8.707031 -0.769531 8.53125 -0.53125 C 8.351562 -0.289062 8.113281 -0.140625 7.8125 -0.078125 C 7.519531 -0.0234375 7.140625 0 6.671875 0 C 6.191406 0 5.804688 -0.0234375 5.515625 -0.078125 C 5.222656 -0.140625 4.976562 -0.28125 4.78125 -0.5 C 4.582031 -0.71875 4.421875 -1.039062 4.296875 -1.46875 C 4.179688 -1.90625 4.085938 -2.5 4.015625 -3.25 C 3.929688 -3.957031 3.859375 -4.898438 3.796875 -6.078125 C 3.742188 -7.253906 3.695312 -8.539062 3.65625 -9.9375 C 3.613281 -11.332031 3.582031 -12.75 3.5625 -14.1875 C 3.550781 -15.625 3.546875 -16.953125 3.546875 -18.171875 C 3.546875 -20.179688 3.570312 -21.8125 3.625 -23.0625 C 3.6875 -24.320312 3.796875 -25.445312 3.953125 -26.4375 C 4.191406 -28.082031 4.503906 -29.117188 4.890625 -29.546875 C 5.285156 -29.984375 5.816406 -30.203125 6.484375 -30.203125 C 7.472656 -30.203125 8.210938 -29.925781 8.703125 -29.375 C 9.191406 -28.832031 9.492188 -27.929688 9.609375 -26.671875 C 11.066406 -27.929688 12.628906 -28.929688 14.296875 -29.671875 C 15.972656 -30.421875 17.695312 -30.796875 19.46875 -30.796875 C 21.15625 -30.796875 22.695312 -30.398438 24.09375 -29.609375 C 25.5 -28.828125 26.648438 -27.550781 27.546875 -25.78125 C 28.097656 -24.71875 28.507812 -23.546875 28.78125 -22.265625 C 29.0625 -20.992188 29.257812 -19.648438 29.375 -18.234375 C 29.414062 -17.597656 29.457031 -16.972656 29.5 -16.359375 C 29.539062 -15.753906 29.570312 -15.109375 29.59375 -14.421875 C 29.613281 -13.734375 29.625 -12.957031 29.625 -12.09375 C 29.625 -11.226562 29.625 -10.207031 29.625 -9.03125 C 29.625 -7.769531 29.601562 -6.585938 29.5625 -5.484375 C 29.519531 -4.378906 29.410156 -3.425781 29.234375 -2.625 C 29.054688 -1.820312 28.75 -1.191406 28.3125 -0.734375 C 27.882812 -0.285156 27.296875 -0.0625 26.546875 -0.0625 C 24.742188 -0.0625 23.800781 -0.925781 23.71875 -2.65625 C 23.71875 -2.769531 23.71875 -3.269531 23.71875 -4.15625 C 23.71875 -5.039062 23.707031 -6.070312 23.6875 -7.25 C 23.664062 -8.4375 23.644531 -9.640625 23.625 -10.859375 C 23.601562 -12.078125 23.578125 -13.078125 23.546875 -13.859375 C 23.503906 -14.492188 23.453125 -15.171875 23.390625 -15.890625 C 23.335938 -16.617188 23.257812 -17.359375 23.15625 -18.109375 C 23.0625 -18.859375 22.929688 -19.578125 22.765625 -20.265625 C 22.609375 -20.953125 22.414062 -21.570312 22.1875 -22.125 C 21.632812 -23.425781 20.941406 -24.253906 20.109375 -24.609375 C 19.285156 -24.960938 18.40625 -25.140625 17.46875 -25.140625 Z M 17.46875 -25.140625 "/></g></g></g><g fill="#231f20" fill-opacity="1"><g transform="translate(167.157822, 246.544564)"><g><path d="M 28.203125 -0.125 C 27.410156 -0.125 26.75 -0.4375 26.21875 -1.0625 C 25.6875 -1.6875 25.328125 -2.414062 25.140625 -3.25 C 24.660156 -2.8125 24.113281 -2.375 23.5 -1.9375 C 22.894531 -1.507812 22.195312 -1.109375 21.40625 -0.734375 C 20.625 -0.359375 19.757812 -0.0546875 18.8125 0.171875 C 17.875 0.410156 16.851562 0.53125 15.75 0.53125 C 14.414062 0.53125 12.929688 0.304688 11.296875 -0.140625 C 9.660156 -0.597656 8.125 -1.382812 6.6875 -2.5 C 5.257812 -3.625 4.0625 -5.148438 3.09375 -7.078125 C 2.132812 -9.003906 1.65625 -11.425781 1.65625 -14.34375 C 1.65625 -16.8125 2.023438 -19.007812 2.765625 -20.9375 C 3.515625 -22.875 4.566406 -24.5 5.921875 -25.8125 C 7.285156 -27.125 8.898438 -28.125 10.765625 -28.8125 C 12.628906 -29.507812 14.664062 -29.859375 16.875 -29.859375 C 18.757812 -29.859375 20.253906 -29.640625 21.359375 -29.203125 C 22.460938 -28.773438 23.328125 -28.265625 23.953125 -27.671875 C 23.953125 -28.734375 23.953125 -29.941406 23.953125 -31.296875 C 23.953125 -32.648438 23.960938 -33.96875 23.984375 -35.25 C 24.003906 -36.53125 24.023438 -37.703125 24.046875 -38.765625 C 24.066406 -39.828125 24.09375 -40.632812 24.125 -41.1875 C 24.207031 -42.519531 24.441406 -43.429688 24.828125 -43.921875 C 25.222656 -44.410156 25.914062 -44.65625 26.90625 -44.65625 C 27.925781 -44.65625 28.625 -44.410156 29 -43.921875 C 29.375 -43.429688 29.597656 -42.578125 29.671875 -41.359375 C 29.710938 -40.847656 29.742188 -40.160156 29.765625 -39.296875 C 29.785156 -38.429688 29.796875 -37.484375 29.796875 -36.453125 C 29.796875 -35.429688 29.804688 -34.398438 29.828125 -33.359375 C 29.847656 -32.316406 29.859375 -31.375 29.859375 -30.53125 C 29.859375 -29.6875 29.859375 -28.988281 29.859375 -28.4375 C 29.859375 -27.882812 29.859375 -27.609375 29.859375 -27.609375 C 29.859375 -23.597656 29.828125 -19.898438 29.765625 -16.515625 C 29.703125 -13.140625 29.671875 -10.445312 29.671875 -8.4375 C 29.753906 -8 29.921875 -7.582031 30.171875 -7.1875 C 30.429688 -6.800781 30.707031 -6.410156 31 -6.015625 C 31.300781 -5.617188 31.566406 -5.203125 31.796875 -4.765625 C 32.035156 -4.335938 32.15625 -3.890625 32.15625 -3.421875 C 32.15625 -2.867188 32.015625 -2.382812 31.734375 -1.96875 C 31.460938 -1.5625 31.117188 -1.21875 30.703125 -0.9375 C 30.296875 -0.664062 29.863281 -0.460938 29.40625 -0.328125 C 28.957031 -0.191406 28.554688 -0.125 28.203125 -0.125 Z M 16.8125 -5.3125 C 19.25 -5.3125 21.113281 -6.035156 22.40625 -7.484375 C 23.707031 -8.941406 24.359375 -11.34375 24.359375 -14.6875 C 24.359375 -21.101562 21.820312 -24.3125 16.75 -24.3125 C 15.570312 -24.3125 14.429688 -24.132812 13.328125 -23.78125 C 12.234375 -23.425781 11.257812 -22.875 10.40625 -22.125 C 9.5625 -21.375 8.875 -20.425781 8.34375 -19.28125 C 7.8125 -18.144531 7.546875 -16.789062 7.546875 -15.21875 C 7.546875 -13.925781 7.734375 -12.6875 8.109375 -11.5 C 8.484375 -10.320312 9.050781 -9.269531 9.8125 -8.34375 C 10.582031 -7.425781 11.546875 -6.691406 12.703125 -6.140625 C 13.867188 -5.585938 15.238281 -5.3125 16.8125 -5.3125 Z M 16.8125 -5.3125 "/></g></g></g><g fill="#231f20" fill-opacity="1"><g transform="translate(200.429387, 246.544564)"><g><path d="M 17.234375 -29.90625 C 19.472656 -29.90625 21.476562 -29.5625 23.25 -28.875 C 25.019531 -28.1875 26.523438 -27.210938 27.765625 -25.953125 C 29.003906 -24.703125 29.957031 -23.171875 30.625 -21.359375 C 31.289062 -19.546875 31.625 -17.519531 31.625 -15.28125 C 31.625 -12.800781 31.238281 -10.578125 30.46875 -8.609375 C 29.707031 -6.640625 28.644531 -4.96875 27.28125 -3.59375 C 25.925781 -2.21875 24.3125 -1.15625 22.4375 -0.40625 C 20.570312 0.332031 18.539062 0.703125 16.34375 0.703125 C 13.945312 0.703125 11.832031 0.289062 10 -0.53125 C 8.164062 -1.351562 6.628906 -2.472656 5.390625 -3.890625 C 4.160156 -5.304688 3.226562 -6.9375 2.59375 -8.78125 C 1.96875 -10.632812 1.65625 -12.582031 1.65625 -14.625 C 1.65625 -16.875 2.015625 -18.929688 2.734375 -20.796875 C 3.460938 -22.660156 4.503906 -24.269531 5.859375 -25.625 C 7.222656 -26.988281 8.867188 -28.039062 10.796875 -28.78125 C 12.722656 -29.53125 14.867188 -29.90625 17.234375 -29.90625 Z M 16.578125 -4.71875 C 18.191406 -4.71875 19.566406 -5.003906 20.703125 -5.578125 C 21.847656 -6.148438 22.785156 -6.90625 23.515625 -7.84375 C 24.242188 -8.789062 24.773438 -9.863281 25.109375 -11.0625 C 25.441406 -12.257812 25.609375 -13.507812 25.609375 -14.8125 C 25.609375 -16.144531 25.441406 -17.390625 25.109375 -18.546875 C 24.773438 -19.710938 24.257812 -20.726562 23.5625 -21.59375 C 22.875 -22.457031 21.988281 -23.132812 20.90625 -23.625 C 19.832031 -24.113281 18.546875 -24.359375 17.046875 -24.359375 C 15.515625 -24.359375 14.175781 -24.101562 13.03125 -23.59375 C 11.894531 -23.082031 10.941406 -22.382812 10.171875 -21.5 C 9.410156 -20.613281 8.832031 -19.5625 8.4375 -18.34375 C 8.039062 -17.125 7.84375 -15.804688 7.84375 -14.390625 C 7.84375 -11.523438 8.578125 -9.195312 10.046875 -7.40625 C 11.523438 -5.613281 13.703125 -4.71875 16.578125 -4.71875 Z M 16.578125 -4.71875 "/></g></g></g></svg>